<svg xmlns="http://www.w3.org/2000/svg" width="500" height="538" viewBox="0 0 18.8 18.1"><path d="m12.4 14.6c2.4 0.3 2 1.1-0.1 1.6-9.1-2.1-11.8 2.9-0.1 1.1 0.7 0.3-2.2 0.9-3.1 0.9-0.9 0-0.9 0.8-0.9 0.8 1.8 0.2 6.5-0.7 5.2-2 2.8-0.7 2.6-2.7 0.8-2.9 8.8-5.3-13.8 1.8-13.1-8 0.6-9 16.6-8.2 16.5 1-0.1 4-5.8 4-6.4 0.6 6.9-0.5-1-9.8-1.3-0.7-0.3 0-0.6 0.1-0.9 0.1 0.2-9.2-7.4 0.4-1.1 0.9-0.4 1.3-2.2 0.9-2.8 0.8-0.6-0.1-0.8 0.6-0.9 0.8 0.7 0.2 3.8 1.1 4.7-1.7l1.1-0.1c1 5.3 8.8 3.9 8.8-0.6 0-11.1-18.6-11-18.8-1-0.2 10.2 19.3 4.7 12.8 7.4-10.8-2.3-15.4 3.7-0.4 1zm-1.4-7.7c-0.3-6.5 4.7-0.2 0 0zm-3 0.1c-3.8 0.2 0.4-5.8 0 0z" stroke-width="0.2px"/></svg>